{
  "accessors": [
    {
      "bufferView": 2,
      "componentType": 5126,
      "count": 5726,
      "max": [
        1,
        1.0000004768371582,
        0.99807912111282349
      ],
      "min": [
        -1.0001704692840576,
        -1.0000007152557373,
        -0.99807840585708618
      ],
      "type": "VEC3"
    },
    {
      "bufferView": 2,
      "byteOffset": 68712,
      "componentType": 5126,
      "count": 5726,
      "max": [
        1,
        1,
        1
      ],
      "min": [
        -1,
        -1,
        -1
      ],
      "type": "VEC3"
    },
    {
      "bufferView": 1,
      "componentType": 5126,
      "count": 5726,
      "max": [
        0.99302583932876587,
        0.99368321895599365
      ],
      "min": [
        0.0063167731277644634,
        0.0063167731277644634
      ],
      "type": "VEC2"
    },
    {
      "bufferView": 0,
      "componentType": 5125,
      "count": 14028,
      "max": [
        5725
      ],
      "min": [
        0
      ],
      "type": "SCALAR"
    },
    {
      "bufferView": 2,
      "byteOffset": 137424,
      "componentType": 5126,
      "count": 10776,
      "max": [
        0.87726926803588867,
        0.87941879034042358,
        0.87712615728378296
      ],
      "min": [
        -0.87816298007965088,
        -0.87953323125839233,
        -0.87665772438049316
      ],
      "type": "VEC3"
    },
    {
      "bufferView": 2,
      "byteOffset": 266736,
      "componentType": 5126,
      "count": 10776,
      "max": [
        0.99958676099777222,
        0.99992424249649048,
        0.99997138977050781
      ],
      "min": [
        -0.99978560209274292,
        -0.99947726726531982,
        -0.99989891052246094
      ],
      "type": "VEC3"
    },
    {
      "bufferView": 1,
      "byteOffset": 45808,
      "componentType": 5126,
      "count": 10776,
      "max": [
        0.95269298553466797,
        0.96996653079986572
      ],
      "min": [
        0.024702459573745728,
        0.024718962609767914
      ],
      "type": "VEC2"
    },
    {
      "bufferView": 0,
      "byteOffset": 56112,
      "componentType": 5125,
      "count": 61926,
      "max": [
        10775
      ],
      "min": [
        0
      ],
      "type": "SCALAR"
    }
  ],
  "asset": {
    "extras": {
      "author": "Spex130 (https://sketchfab.com/spex130)",
      "license": "CC-BY-NC-4.0 (http://creativecommons.org/licenses/by-nc/4.0/)",
      "source": "https://sketchfab.com/3d-models/3d-print-code-cube-d6-kirby-planet-robobot-bf94641134e74ace8b1735350f2421d5",
      "title": "3D Print - Code Cube D6 (Kirby Planet Robobot)"
    },
    "generator": "Sketchfab-9.12.0",
    "version": "2.0"
  },
  "bufferViews": [
    {
      "buffer": 0,
      "byteLength": 303816,
      "byteOffset": 0,
      "name": "floatBufferViews",
      "target": 34963
    },
    {
      "buffer": 0,
      "byteLength": 132016,
      "byteOffset": 303816,
      "byteStride": 8,
      "name": "floatBufferViews",
      "target": 34962
    },
    {
      "buffer": 0,
      "byteLength": 396048,
      "byteOffset": 435832,
      "byteStride": 12,
      "name": "floatBufferViews",
      "target": 34962
    }
  ],
  "buffers": [
    {
      "byteLength": 831880,
      "uri": "scene.bin"
    }
  ],
  "materials": [
    {
      "doubleSided": true,
      "emissiveFactor": [
        0.0010182139936885865,
        0.030451221136262738,
        0.08171862697006764
      ],
      "name": "MatcapMaterial",
      "pbrMetallicRoughness": {
        "baseColorFactor": [
          0.01096009400648823,
          0.32777809805654218,
          0.8796223968878315,
          1
        ],
        "metallicFactor": 0.59801547847923331,
        "roughnessFactor": 0.29112676634710838
      }
    },
    {
      "doubleSided": true,
      "emissiveFactor": [
        1,
        1,
        1
      ],
      "name": "WhiteMaterial",
      "pbrMetallicRoughness": {
        "baseColorFactor": [
          1,
          1,
          1,
          1
        ],
        "metallicFactor": 0,
        "roughnessFactor": 0.05125456479833812
      }
    }
  ],
  "meshes": [
    {
      "name": "Cube.000_MatcapMaterial_0",
      "primitives": [
        {
          "attributes": {
            "NORMAL": 1,
            "POSITION": 0,
            "TEXCOORD_0": 2
          },
          "indices": 3,
          "material": 0,
          "mode": 4
        }
      ]
    },
    {
      "name": "Cube.003_WhiteMaterial_0",
      "primitives": [
        {
          "attributes": {
            "NORMAL": 5,
            "POSITION": 4,
            "TEXCOORD_0": 6
          },
          "indices": 7,
          "material": 1,
          "mode": 4
        }
      ]
    }
  ],
  "nodes": [
    {
      "children": [
        1
      ],
      "name": "RootNode (gltf orientation matrix)",
      "rotation": [
        -0.70710678118654746,
        -0,
        -0,
        0.70710678118654757
      ]
    },
    {
      "children": [
        2
      ],
      "name": "RootNode (model correction matrix)"
    },
    {
      "children": [
        3
      ],
      "matrix": [
        1,
        0,
        0,
        0,
        0,
        0,
        1,
        0,
        0,
        -1,
        0,
        0,
        0,
        0,
        0,
        1
      ],
      "name": "ef06b174366d432cb525a944899cddfa.fbx"
    },
    {
      "children": [
        4,
        6,
        8
      ],
      "name": "RootNode"
    },
    {
      "children": [
        5
      ],
      "matrix": [
        7.5497899598708784e-06,
        5.5511151231257827e-15,
        99.999999999999716,
        0,
        -99.999999999979266,
        -6.3975783781700102e-05,
        7.5497899598708784e-06,
        0,
        6.3975783776148987e-05,
        -99.999999999979536,
        -4.8405723873656825e-12,
        0,
        0,
        0,
        0,
        1
      ],
      "name": "Cube.000"
    },
    {
      "mesh": 0,
      "name": "Cube.000_MatcapMaterial_0"
    },
    {
      "children": [
        7
      ],
      "matrix": [
        7.5497899598708784e-06,
        5.5511151231257827e-15,
        99.999999999999716,
        0,
        -99.999999999979266,
        -6.3975783781700102e-05,
        7.5497899598708784e-06,
        0,
        6.3975783776148987e-05,
        -99.999999999979536,
        -4.8405723873656825e-12,
        0,
        0,
        0,
        0,
        1
      ],
      "name": "Cube.003"
    },
    {
      "mesh": 1,
      "name": "Cube.003_WhiteMaterial_0"
    },
    {
      "children": [
        9
      ],
      "matrix": [
        -49.999953782490422,
        -70.710664160269118,
        50.000065957580986,
        0,
        -49.999945922204653,
        70.710713656228222,
        50.000064855158577,
        0,
        -70.710765222429742,
        3.378936610730341e-06,
        -70.710601804378456,
        0,
        253.75456237792969,
        352.21875,
        -251.65126037597656,
        1
      ],
      "name": "Camera"
    },
    {
      "name": ""
    }
  ],
  "scene": 0,
  "scenes": [
    {
      "name": "OSG_Scene",
      "nodes": [
        0
      ]
    }
  ]
}

